<svg width="13" height="8" viewBox="0 0 13 8" fill="none" xmlns="http://www.w3.org/2000/svg">
<path d="M12.3333 0H0.66668C0.29999 0 0 0.276913 0 0.615374V7.3846C0 7.72304 0.29999 8 0.66668 8H12.3333C12.7 8 13 7.72309 13 7.3846V0.615374C13 0.276913 12.7 0 12.3333 0ZM12.0831 0.461507L6.88349 4.06155C6.79 4.12722 6.64649 4.1683 6.49996 4.1677C6.35346 4.1683 6.20998 4.12722 6.11646 4.06155L0.916828 0.461507H12.0831ZM9.30565 4.29909L12.139 7.52987C12.1418 7.5331 12.1453 7.53556 12.1483 7.53849H0.851651C0.854647 7.53542 0.858151 7.5331 0.860994 7.52987L3.69433 4.29909C3.78114 4.20002 3.76469 4.05477 3.65716 3.97445C3.54983 3.89432 3.39249 3.90951 3.30565 4.0086L0.499991 7.20784V0.749975L5.81663 4.43073C6.01647 4.56812 6.25961 4.62859 6.49994 4.6292C6.73993 4.62873 6.98327 4.56826 7.18325 4.43073L12.4999 0.749975V7.20779L9.6943 4.0086C9.60746 3.90953 9.44997 3.8943 9.34279 3.97445C9.23529 4.05459 9.21879 4.20002 9.30565 4.29909Z" fill="#616161"/>
</svg>
