<svg width="12" height="13" viewBox="0 0 12 13" fill="none" xmlns="http://www.w3.org/2000/svg">
<path d="M11.1002 4.93523H10.141V3.96584C10.1409 1.77554 8.42809 0.000177734 6.32085 0C4.21362 0.000177734 2.49589 1.77554 2.49572 3.96581V4.9352H1.54142C1.19095 4.9352 0.904175 5.23329 0.904175 5.59764V12.3376C0.904175 12.7019 1.19092 13 1.54142 13H11.1003C11.4507 13 11.7375 12.7019 11.7375 12.3376V5.59767C11.7375 5.23326 11.4507 4.93523 11.1002 4.93523ZM2.97366 3.96581C2.97383 3.00711 3.35665 2.14142 3.96094 1.51285C4.56572 0.884787 5.39843 0.497021 6.32088 0.496869C7.24315 0.497047 8.07604 0.884787 8.68065 1.51285C9.28508 2.14142 9.66296 3.00711 9.66314 3.96581V4.9352H2.97366V3.96581ZM11.1003 12.5031H1.54142C1.45508 12.5031 1.38211 12.4272 1.38211 12.3376V5.59767C1.38211 5.50796 1.45508 5.4321 1.54142 5.4321H11.1003C11.1866 5.4321 11.2596 5.50781 11.2596 5.59767V12.3376H11.2596C11.2596 12.4272 11.1866 12.5031 11.1003 12.5031Z" fill="#616161"/>
</svg>
